<svg width="1280" height="720" viewBox="0 0 1280 720" fill="none" xmlns="http://www.w3.org/2000/svg">
  <rect width="1280" height="720" fill="#07111F"/>
  <rect width="1280" height="720" fill="url(#grid)" opacity="0.22"/>
  <circle cx="1010" cy="96" r="290" fill="#0F766E" opacity="0.32"/>
  <circle cx="196" cy="650" r="360" fill="#2563EB" opacity="0.22"/>
  <path d="M180 156C180 130.595 200.595 110 226 110H1054C1079.41 110 1100 130.595 1100 156V564C1100 589.405 1079.41 610 1054 610H226C200.595 610 180 589.405 180 564V156Z" fill="#F8FAFC" fill-opacity="0.94"/>
  <path d="M180 156C180 130.595 200.595 110 226 110H1054C1079.41 110 1100 130.595 1100 156V564C1100 589.405 1079.41 610 1054 610H226C200.595 610 180 589.405 180 564V156Z" stroke="#E2E8F0" stroke-width="2"/>
  <rect x="236" y="170" width="214" height="42" rx="21" fill="#DBEAFE"/>
  <text x="343" y="198" text-anchor="middle" font-family="Inter, Arial, sans-serif" font-size="18" font-weight="700" fill="#2563EB">REFORMA TRIBUTÁRIA</text>
  <text x="236" y="286" font-family="Inter, Arial, sans-serif" font-size="68" font-weight="800" fill="#0F172A">IVA Dual</text>
  <text x="236" y="334" font-family="Inter, Arial, sans-serif" font-size="28" font-weight="500" fill="#475569">Como IBS e CBS reorganizam a tributação sobre consumo</text>
  <rect x="236" y="408" width="238" height="118" rx="22" fill="#ECFDF5" stroke="#99F6E4" stroke-width="2"/>
  <text x="355" y="462" text-anchor="middle" font-family="Inter, Arial, sans-serif" font-size="42" font-weight="800" fill="#0F766E">IBS</text>
  <text x="355" y="494" text-anchor="middle" font-family="Inter, Arial, sans-serif" font-size="17" font-weight="600" fill="#334155">Estados e Municípios</text>
  <rect x="524" y="408" width="238" height="118" rx="22" fill="#EFF6FF" stroke="#BFDBFE" stroke-width="2"/>
  <text x="643" y="462" text-anchor="middle" font-family="Inter, Arial, sans-serif" font-size="42" font-weight="800" fill="#2563EB">CBS</text>
  <text x="643" y="494" text-anchor="middle" font-family="Inter, Arial, sans-serif" font-size="17" font-weight="600" fill="#334155">União Federal</text>
  <path d="M792 467H976" stroke="#94A3B8" stroke-width="10" stroke-linecap="round"/>
  <path d="M948 433L982 467L948 501" stroke="#94A3B8" stroke-width="10" stroke-linecap="round" stroke-linejoin="round"/>
  <rect x="832" y="342" width="190" height="72" rx="16" fill="#F1F5F9"/>
  <text x="927" y="386" text-anchor="middle" font-family="Inter, Arial, sans-serif" font-size="20" font-weight="700" fill="#0F172A">Créditos</text>
  <rect x="832" y="520" width="190" height="72" rx="16" fill="#F1F5F9"/>
  <text x="927" y="564" text-anchor="middle" font-family="Inter, Arial, sans-serif" font-size="20" font-weight="700" fill="#0F172A">Apuração</text>
  <path d="M926 414V520" stroke="#CBD5E1" stroke-width="6" stroke-dasharray="14 14"/>
  <defs>
    <pattern id="grid" width="56" height="56" patternUnits="userSpaceOnUse">
      <path d="M56 0H0V56" stroke="#94A3B8" stroke-width="1"/>
    </pattern>
  </defs>
</svg>
